<?xml version="1.0" encoding="UTF-8" standalone="no"?>
<!DOCTYPE svg PUBLIC "-//W3C//DTD SVG 1.1//EN" "http://www.w3.org/Graphics/SVG/1.1/DTD/svg11.dtd">
<svg width="100%" height="100%" viewBox="0 0 6000 6000" version="1.1" xmlns="http://www.w3.org/2000/svg" xmlns:xlink="http://www.w3.org/1999/xlink" xml:space="preserve" xmlns:serif="http://www.serif.com/" style="fill-rule:evenodd;clip-rule:evenodd;stroke-linejoin:round;stroke-miterlimit:2;">
    <g transform="matrix(5.55556,0,0,5.55556,-10722.6,-7678.89)">
        <path d="M2160.37,1826.12L2160.37,1826.06L2242.98,1826.06C2245.54,1826.06 2247.61,1823.99 2247.61,1821.43L2247.61,1821.12C2247.61,1818.57 2245.54,1816.5 2242.98,1816.5L2161.67,1816.5C2161.24,1816.47 2160.8,1816.45 2160.37,1816.45C2148.8,1816.45 2139.42,1826.8 2139.42,1839.57C2139.42,1852.33 2148.8,1862.68 2160.37,1862.68C2160.62,1862.68 2160.87,1862.68 2161.13,1862.67C2161.23,1862.67 2161.34,1862.68 2161.45,1862.68L2186.5,1862.68C2189.05,1862.68 2191.12,1860.61 2191.12,1858.06L2191.12,1857.73C2191.12,1855.18 2189.05,1853.11 2186.5,1853.11L2160.37,1853.11L2160.37,1853.09C2154.17,1852.78 2149.23,1846.87 2149.23,1839.61C2149.23,1832.35 2154.17,1826.43 2160.37,1826.12" style="fill:rgb(66,179,224);fill-rule:nonzero;"/>
    </g>
    <g transform="matrix(5.55556,0,0,5.55556,-10722.6,-6740.17)">
        <path d="M2213.42,1768.56L2129.69,1768.56C2127.14,1768.56 2125.07,1770.63 2125.07,1773.19L2125.07,1773.5C2125.07,1776.05 2127.14,1778.12 2129.69,1778.12L2214.64,1778.12C2225.09,1776.83 2233.22,1767.04 2233.22,1755.16C2233.22,1742.39 2223.84,1732.04 2212.28,1732.04C2211.84,1732.04 2211.42,1732.06 2210.99,1732.09L2186.37,1732.09C2183.82,1732.09 2181.75,1734.16 2181.75,1736.71L2181.75,1736.98C2181.75,1739.54 2183.82,1741.61 2186.37,1741.61L2195.31,1741.61C2195.29,1741.64 2195.27,1741.68 2195.25,1741.71L2211.26,1741.71C2211.43,1741.7 2211.6,1741.7 2211.77,1741.7C2218.2,1741.7 2223.41,1747.74 2223.41,1755.2C2223.41,1762 2219.07,1767.63 2213.42,1768.56" style="fill:rgb(66,179,224);fill-rule:nonzero;"/>
    </g>
    <g transform="matrix(5.55556,0,0,5.55556,-10722.6,-7209.72)">
        <path d="M2215.3,1792.63L2215.02,1792.63C2214.88,1792.62 2214.75,1792.62 2214.6,1792.62C2214.52,1792.62 2214.44,1792.63 2214.35,1792.63L2158.08,1792.63L2158.08,1792.67L2157.62,1792.67C2139.47,1791.79 2125,1775.14 2125,1755.03C2125,1734.64 2139.89,1718.05 2158.41,1717.62C2158.59,1717.64 2158.77,1717.66 2158.96,1717.66L2242.98,1717.66C2245.54,1717.66 2247.61,1715.59 2247.61,1713.03L2247.61,1712.72C2247.61,1710.17 2245.54,1708.09 2242.98,1708.09L2158.96,1708.09C2158.87,1708.09 2158.78,1708.1 2158.69,1708.11C2158.48,1708.1 2158.28,1708.09 2158.08,1708.09C2134.36,1708.09 2115.14,1729.16 2115.14,1755.14C2115.14,1781.12 2134.36,1802.18 2158.08,1802.18L2215.3,1802.18L2215.3,1802.19C2233.34,1803.2 2247.69,1819.55 2247.69,1839.58C2247.69,1859.91 2232.9,1876.45 2214.47,1876.99L2129.69,1876.99C2127.14,1876.99 2125.07,1879.07 2125.07,1881.62L2125.07,1881.96C2125.07,1884.52 2127.14,1886.59 2129.69,1886.59L2218.05,1886.59C2240.15,1884.67 2257.54,1864.4 2257.54,1839.68C2257.54,1813.95 2238.69,1793.04 2215.3,1792.63" style="fill:rgb(66,179,224);fill-rule:nonzero;"/>
    </g>
    <g transform="matrix(5.55556,0,0,5.55556,-10722.6,-7210.89)">
        <path d="M2561.33,1886.73L2532.64,1886.73C2530.51,1886.73 2528.79,1885 2528.79,1882.87L2528.79,1712.01C2528.79,1709.88 2530.51,1708.16 2532.64,1708.16L2561.33,1708.16C2563.46,1708.16 2565.19,1709.88 2565.19,1712.01L2565.19,1882.87C2565.19,1885 2563.46,1886.73 2561.33,1886.73" style="fill:rgb(0,36,71);fill-rule:nonzero;"/>
    </g>
    <g transform="matrix(5.55556,0,0,5.55556,-10722.6,-7210.56)">
        <path d="M2821.15,1708.18L2704.18,1708.18C2702.05,1708.18 2700.32,1709.91 2700.32,1712.04L2700.32,1740.73C2700.32,1742.86 2702.05,1744.59 2704.18,1744.59L2740.61,1744.59C2742.73,1744.59 2744.46,1746.31 2744.46,1748.44L2744.46,1882.79C2744.46,1884.92 2746.19,1886.65 2748.32,1886.65L2777.01,1886.65C2779.14,1886.65 2780.87,1884.92 2780.87,1882.79L2780.87,1748.44C2780.87,1746.31 2782.59,1744.59 2784.72,1744.59L2821.15,1744.59C2823.28,1744.59 2825,1742.86 2825,1740.73L2825,1712.04C2825,1709.91 2823.28,1708.18 2821.15,1708.18Z" style="fill:rgb(0,36,71);fill-rule:nonzero;"/>
    </g>
    <g transform="matrix(5.55556,0,0,5.55556,-10722.6,-7210.22)">
        <path d="M2476.89,1710.41L2425.69,1808.76L2409.61,1777.87L2389.09,1738.45L2374.49,1710.41C2373.9,1709.27 2372.36,1708.34 2371.07,1708.34L2338.72,1708.34C2335.23,1708.34 2333.69,1710.87 2335.3,1713.97L2367.64,1776.09C2368.15,1777.07 2368.15,1778.67 2367.64,1779.65L2352.51,1808.71L2301.35,1710.41C2300.75,1709.27 2299.21,1708.34 2297.93,1708.34L2265.58,1708.34C2262.08,1708.34 2260.54,1710.87 2262.16,1713.97L2331.99,1848.13L2351.54,1885.68C2351.65,1885.88 2351.81,1886.04 2352.01,1886.15C2352.54,1886.43 2353.21,1886.22 2353.48,1885.68L2373.03,1848.13L2389.09,1817.29L2405.17,1848.18L2424.58,1885.46C2424.66,1885.63 2424.87,1885.84 2425.04,1885.93L2425.27,1886.05C2425.8,1886.32 2426.46,1886.11 2426.74,1885.58L2446.21,1848.18L2516.08,1713.97C2517.69,1710.87 2516.15,1708.34 2512.66,1708.34L2480.31,1708.34C2479.02,1708.34 2477.48,1709.27 2476.89,1710.41" style="fill:rgb(0,36,71);fill-rule:nonzero;"/>
    </g>
    <g transform="matrix(5.55556,0,0,5.55556,-10722.6,-5596.78)">
        <path d="M2243.93,1631.32L2243.93,1634.18C2243.93,1636.31 2245.65,1638.04 2247.78,1638.04L2253.61,1638.04C2255.74,1638.04 2257.47,1639.76 2257.47,1641.89L2257.47,1673.02C2257.47,1675.15 2259.2,1676.88 2261.33,1676.88L2264.19,1676.88C2266.31,1676.88 2268.04,1675.15 2268.04,1673.02L2268.04,1641.89C2268.04,1639.76 2269.77,1638.04 2271.9,1638.04L2277.73,1638.04C2279.86,1638.04 2281.58,1636.31 2281.58,1634.18L2281.58,1631.32C2281.58,1629.19 2279.86,1627.47 2277.73,1627.47L2247.78,1627.47C2245.65,1627.47 2243.93,1629.19 2243.93,1631.32" style="fill:rgb(67,179,223);fill-rule:nonzero;"/>
    </g>
    <g transform="matrix(5.55556,0,0,5.55556,-10722.6,-5597.06)">
        <path d="M2686.03,1631.37L2686.03,1643.45C2686.03,1645.58 2684.3,1647.3 2682.17,1647.3L2672.79,1647.3C2670.66,1647.3 2668.93,1645.58 2668.93,1643.45L2668.93,1631.37C2668.93,1629.24 2667.21,1627.51 2665.08,1627.51L2662.6,1627.51C2660.47,1627.51 2658.75,1629.24 2658.75,1631.37L2658.75,1673.03C2658.75,1675.16 2660.47,1676.89 2662.6,1676.89L2665.08,1676.89C2667.21,1676.89 2668.93,1675.16 2668.93,1673.03L2668.93,1660.96C2668.93,1658.83 2670.66,1657.1 2672.79,1657.1L2682.17,1657.1C2684.3,1657.1 2686.03,1658.83 2686.03,1660.96L2686.03,1673.03C2686.03,1675.16 2687.75,1676.89 2689.88,1676.89L2692.36,1676.89C2694.49,1676.89 2696.21,1675.16 2696.21,1673.03L2696.21,1631.37C2696.21,1629.24 2694.49,1627.51 2692.36,1627.51L2689.88,1627.51C2687.75,1627.51 2686.03,1629.24 2686.03,1631.37" style="fill:rgb(67,179,223);fill-rule:nonzero;"/>
    </g>
    <g transform="matrix(5.55556,0,0,5.55556,-10722.6,-5594.56)">
        <path d="M2551.01,1665.43C2548.48,1666.96 2545.48,1667.79 2542.28,1667.64C2534.47,1667.29 2528.04,1661.04 2527.5,1653.24C2526.86,1644.15 2534.04,1636.58 2542.99,1636.58C2545.69,1636.58 2548.22,1637.27 2550.43,1638.48C2552.26,1639.48 2554.57,1638.78 2555.61,1636.97L2556.16,1636.01C2557.22,1634.19 2556.61,1631.87 2554.81,1630.77C2551.01,1628.47 2546.54,1627.13 2541.76,1627.13C2527.92,1627.13 2516.7,1638.26 2516.7,1651.98C2516.7,1665.7 2527.92,1676.82 2541.76,1676.82C2546.87,1676.82 2551.63,1675.3 2555.59,1672.7C2557.28,1671.58 2557.78,1669.32 2556.77,1667.57L2556.33,1666.81C2555.25,1664.94 2552.85,1664.32 2551.01,1665.43" style="fill:rgb(67,179,223);fill-rule:nonzero;"/>
    </g>
    <g transform="matrix(5.55556,0,0,5.55556,-10722.6,-7211.44)">
        <path d="M2682.86,1775.69L2627.22,1775.69C2625.09,1775.69 2623.37,1773.97 2623.37,1771.84L2623.37,1748.49C2623.37,1746.36 2625.09,1744.64 2627.22,1744.64L2676.21,1744.64C2678.34,1744.64 2680.07,1742.91 2680.07,1740.78L2680.07,1712.41C2680.07,1710.28 2678.34,1708.56 2676.21,1708.56L2623.37,1708.56L2623.37,1708.5L2587.29,1708.5L2587.29,1708.56L2591.14,1708.56C2589.01,1708.56 2587.29,1710.28 2587.29,1712.41L2587.29,1882.63C2587.29,1884.76 2589.01,1886.49 2591.14,1886.49L2619.51,1886.49C2621.64,1886.49 2623.37,1884.76 2623.37,1882.63L2623.37,1815.63C2623.37,1813.5 2625.09,1811.78 2627.22,1811.78L2682.86,1811.78C2684.98,1811.78 2686.71,1810.05 2686.71,1807.92L2686.71,1779.55C2686.71,1777.42 2684.98,1775.69 2682.86,1775.69" style="fill:rgb(0,36,71);fill-rule:nonzero;"/>
    </g>
    <g transform="matrix(5.55556,0,0,5.55556,-10722.6,-5594.78)">
        <path d="M2396.73,1636.16L2411.39,1636.16C2413.52,1636.16 2415.25,1634.44 2415.25,1632.31L2415.25,1630.99C2415.25,1628.86 2413.52,1627.13 2411.39,1627.13L2386.94,1627.13C2384.81,1627.13 2383.08,1628.86 2383.08,1630.99L2383.08,1646.71L2383.04,1646.71L2383.04,1657.28L2383.08,1657.28L2383.08,1673.01C2383.08,1675.14 2384.81,1676.86 2386.94,1676.86L2411.39,1676.86C2413.52,1676.86 2415.25,1675.14 2415.25,1673.01L2415.25,1671.69C2415.25,1669.56 2413.52,1667.83 2411.39,1667.83L2396.73,1667.83C2394.61,1667.83 2392.88,1666.11 2392.88,1663.98L2392.88,1660.37C2392.88,1658.24 2394.61,1656.51 2396.73,1656.51L2407.3,1656.51C2409.43,1656.51 2411.16,1654.79 2411.16,1652.66L2411.16,1651.34C2411.16,1649.21 2409.43,1647.48 2407.3,1647.48L2396.73,1647.48C2394.61,1647.48 2392.88,1645.76 2392.88,1643.63L2392.88,1640.02C2392.88,1637.89 2394.61,1636.16 2396.73,1636.16" style="fill:rgb(67,179,223);fill-rule:nonzero;"/>
    </g>
</svg>
